<svg xmlns="http://www.w3.org/2000/svg" width="1024" height="1024" viewBox="0 0 1024 1024"><defs>
    <linearGradient id="gBg"   x1="0" y1="0" x2="0" y2="1">
      <stop offset="0" stop-color="#F5F6F8"/><stop offset="1" stop-color="#E0E4EB"/></linearGradient>
    <linearGradient id="gTop"  x1="0" y1="0" x2="0.35" y2="1">
      <stop offset="0" stop-color="#4A80FF"/><stop offset="1" stop-color="#1E55F6"/></linearGradient>
    <linearGradient id="gLeft" x1="0" y1="0" x2="0" y2="1">
      <stop offset="0" stop-color="#1E50E0"/><stop offset="1" stop-color="#1640BE"/></linearGradient>
    <linearGradient id="gRight" x1="0" y1="0" x2="0" y2="1">
      <stop offset="0" stop-color="#12379F"/><stop offset="1" stop-color="#0C2C7E"/></linearGradient>
    <linearGradient id="gBore" x1="0" y1="0" x2="0" y2="1">
      <stop offset="0" stop-color="#0A2160"/><stop offset="1" stop-color="#1D4ECB"/></linearGradient>
    <linearGradient id="gLit"  x1="0" y1="0" x2="1" y2="1">
      <stop offset="0" stop-color="#FFFFFF"/><stop offset="0.5" stop-color="#A9CBFF"/><stop offset="1" stop-color="#0D0DFF"/></linearGradient>
    <linearGradient id="gWire" gradientUnits="userSpaceOnUse" x1="512" y1="285" x2="600" y2="745">
      <stop offset="0" stop-color="#2323FF"/><stop offset="1" stop-color="#0000EE"/></linearGradient>
    <radialGradient id="gGlow" cx="0.5" cy="0.4" r="0.55">
      <stop offset="0" stop-color="#FFFFFF" stop-opacity="0.9"/><stop offset="1" stop-color="#FFFFFF" stop-opacity="0"/></radialGradient>
    <filter id="softShadow" x="-40%" y="-40%" width="180%" height="180%">
      <feDropShadow dx="0" dy="22" stdDeviation="26" flood-color="#0A1A4A" flood-opacity="0.30"/></filter>
  </defs>
<rect x="100.0" y="100.0" width="824.0" height="824.0" rx="185.4" ry="185.4" fill="url(#gBg)"/>
  <rect x="100.0" y="100.0" width="824.0" height="824.0" rx="185.4" ry="185.4" fill="url(#gGlow)" opacity="0.5"/>
  <rect x="101.0" y="101.0" width="822.0" height="822.0" rx="184.4" ry="184.4" fill="none" stroke="#FFFFFF" stroke-opacity="0.6" stroke-width="2"/>
  <rect x="100.5" y="100.5" width="823.0" height="823.0" rx="185.4" ry="185.4" fill="none" stroke="#0A1330" stroke-opacity="0.07" stroke-width="1"/>
<polygon points="512.00,263.00 771.81,413.00 512.00,563.00 252.19,413.00" fill="none" stroke="url(#gWire)" stroke-width="38.0" stroke-linejoin="miter" stroke-miterlimit="10"/><polygon points="771.81,413.00 771.81,611.00 512.00,761.00 512.00,563.00" fill="none" stroke="url(#gWire)" stroke-width="38.0" stroke-linejoin="miter" stroke-miterlimit="10"/><polygon points="252.19,413.00 512.00,563.00 512.00,761.00 252.19,611.00" fill="none" stroke="url(#gWire)" stroke-width="38.0" stroke-linejoin="miter" stroke-miterlimit="10"/>
</svg>